<?xml version="1.0" encoding="UTF-8"?>
<svg xmlns="http://www.w3.org/2000/svg" width="1086" height="750" viewBox="0 0 1086 750">
<rect x="0" y="0" width="1086" height="750" fill="#ffffff"/>
<g id="segments" stroke="#9aa0a6" stroke-width="1.5" fill="none" opacity="0.9">
<line x1="1044.00" y1="120.00" x2="1044.00" y2="288.00"/>
<line x1="1044.00" y1="120.00" x2="876.00" y2="36.00"/>
<line x1="1044.00" y1="120.00" x2="876.00" y2="204.00"/>
<line x1="1044.00" y1="288.00" x2="876.00" y2="372.00"/>
<line x1="876.00" y1="36.00" x2="708.00" y2="120.00"/>
<line x1="876.00" y1="204.00" x2="876.00" y2="372.00"/>
<line x1="876.00" y1="204.00" x2="708.00" y2="120.00"/>
<line x1="876.00" y1="372.00" x2="876.00" y2="540.00"/>
<line x1="876.00" y1="372.00" x2="708.00" y2="288.00"/>
<line x1="876.00" y1="372.00" x2="708.00" y2="456.00"/>
<line x1="876.00" y1="540.00" x2="708.00" y2="624.00"/>
<line x1="708.00" y1="120.00" x2="708.00" y2="288.00"/>
<line x1="708.00" y1="120.00" x2="540.00" y2="36.00"/>
<line x1="708.00" y1="120.00" x2="540.00" y2="204.00"/>
<line x1="708.00" y1="288.00" x2="540.00" y2="372.00"/>
<line x1="708.00" y1="456.00" x2="708.00" y2="624.00"/>
<line x1="708.00" y1="456.00" x2="540.00" y2="372.00"/>
<line x1="708.00" y1="624.00" x2="540.00" y2="540.00"/>
<line x1="708.00" y1="624.00" x2="540.00" y2="708.00"/>
<line x1="540.00" y1="540.00" x2="540.00" y2="372.00"/>
<line x1="540.00" y1="540.00" x2="372.00" y2="624.00"/>
<line x1="540.00" y1="708.00" x2="372.00" y2="624.00"/>
<line x1="540.00" y1="36.00" x2="372.00" y2="120.00"/>
<line x1="540.00" y1="204.00" x2="540.00" y2="372.00"/>
<line x1="540.00" y1="204.00" x2="372.00" y2="120.00"/>
<line x1="540.00" y1="372.00" x2="372.00" y2="288.00"/>
<line x1="540.00" y1="372.00" x2="372.00" y2="456.00"/>
<line x1="372.00" y1="120.00" x2="372.00" y2="288.00"/>
<line x1="372.00" y1="120.00" x2="204.00" y2="36.00"/>
<line x1="372.00" y1="120.00" x2="204.00" y2="204.00"/>
<line x1="372.00" y1="288.00" x2="204.00" y2="372.00"/>
<line x1="372.00" y1="456.00" x2="372.00" y2="624.00"/>
<line x1="372.00" y1="456.00" x2="204.00" y2="372.00"/>
<line x1="372.00" y1="624.00" x2="204.00" y2="540.00"/>
<line x1="204.00" y1="540.00" x2="204.00" y2="372.00"/>
<line x1="204.00" y1="36.00" x2="36.00" y2="120.00"/>
<line x1="204.00" y1="204.00" x2="204.00" y2="372.00"/>
<line x1="204.00" y1="204.00" x2="36.00" y2="120.00"/>
<line x1="204.00" y1="372.00" x2="36.00" y2="288.00"/>
<line x1="36.00" y1="120.00" x2="36.00" y2="288.00"/>
</g>
<g id="leds" fill="#111111" opacity="0.65">
<circle cx="882.00" cy="42.00" r="2.10"/>
<circle cx="870.00" cy="42.00" r="2.10"/>
<circle cx="546.00" cy="42.00" r="2.10"/>
<circle cx="534.00" cy="42.00" r="2.10"/>
<circle cx="210.00" cy="42.00" r="2.10"/>
<circle cx="198.00" cy="42.00" r="2.10"/>
<circle cx="894.00" cy="48.00" r="2.10"/>
<circle cx="858.00" cy="48.00" r="2.10"/>
<circle cx="558.00" cy="48.00" r="2.10"/>
<circle cx="522.00" cy="48.00" r="2.10"/>
<circle cx="222.00" cy="48.00" r="2.10"/>
<circle cx="186.00" cy="48.00" r="2.10"/>
<circle cx="906.00" cy="54.00" r="2.10"/>
<circle cx="846.00" cy="54.00" r="2.10"/>
<circle cx="570.00" cy="54.00" r="2.10"/>
<circle cx="510.00" cy="54.00" r="2.10"/>
<circle cx="234.00" cy="54.00" r="2.10"/>
<circle cx="174.00" cy="54.00" r="2.10"/>
<circle cx="918.00" cy="60.00" r="2.10"/>
<circle cx="834.00" cy="60.00" r="2.10"/>
<circle cx="582.00" cy="60.00" r="2.10"/>
<circle cx="498.00" cy="60.00" r="2.10"/>
<circle cx="246.00" cy="60.00" r="2.10"/>
<circle cx="162.00" cy="60.00" r="2.10"/>
<circle cx="930.00" cy="66.00" r="2.10"/>
<circle cx="822.00" cy="66.00" r="2.10"/>
<circle cx="594.00" cy="66.00" r="2.10"/>
<circle cx="486.00" cy="66.00" r="2.10"/>
<circle cx="258.00" cy="66.00" r="2.10"/>
<circle cx="150.00" cy="66.00" r="2.10"/>
<circle cx="942.00" cy="72.00" r="2.10"/>
<circle cx="810.00" cy="72.00" r="2.10"/>
<circle cx="606.00" cy="72.00" r="2.10"/>
<circle cx="474.00" cy="72.00" r="2.10"/>
<circle cx="270.00" cy="72.00" r="2.10"/>
<circle cx="138.00" cy="72.00" r="2.10"/>
<circle cx="954.00" cy="78.00" r="2.10"/>
<circle cx="798.00" cy="78.00" r="2.10"/>
<circle cx="618.00" cy="78.00" r="2.10"/>
<circle cx="462.00" cy="78.00" r="2.10"/>
<circle cx="282.00" cy="78.00" r="2.10"/>
<circle cx="126.00" cy="78.00" r="2.10"/>
<circle cx="966.00" cy="84.00" r="2.10"/>
<circle cx="786.00" cy="84.00" r="2.10"/>
<circle cx="630.00" cy="84.00" r="2.10"/>
<circle cx="450.00" cy="84.00" r="2.10"/>
<circle cx="294.00" cy="84.00" r="2.10"/>
<circle cx="114.00" cy="84.00" r="2.10"/>
<circle cx="978.00" cy="90.00" r="2.10"/>
<circle cx="774.00" cy="90.00" r="2.10"/>
<circle cx="642.00" cy="90.00" r="2.10"/>
<circle cx="438.00" cy="90.00" r="2.10"/>
<circle cx="306.00" cy="90.00" r="2.10"/>
<circle cx="102.00" cy="90.00" r="2.10"/>
<circle cx="990.00" cy="96.00" r="2.10"/>
<circle cx="762.00" cy="96.00" r="2.10"/>
<circle cx="654.00" cy="96.00" r="2.10"/>
<circle cx="426.00" cy="96.00" r="2.10"/>
<circle cx="318.00" cy="96.00" r="2.10"/>
<circle cx="90.00" cy="96.00" r="2.10"/>
<circle cx="1002.00" cy="102.00" r="2.10"/>
<circle cx="750.00" cy="102.00" r="2.10"/>
<circle cx="666.00" cy="102.00" r="2.10"/>
<circle cx="414.00" cy="102.00" r="2.10"/>
<circle cx="330.00" cy="102.00" r="2.10"/>
<circle cx="78.00" cy="102.00" r="2.10"/>
<circle cx="1014.00" cy="108.00" r="2.10"/>
<circle cx="738.00" cy="108.00" r="2.10"/>
<circle cx="678.00" cy="108.00" r="2.10"/>
<circle cx="402.00" cy="108.00" r="2.10"/>
<circle cx="342.00" cy="108.00" r="2.10"/>
<circle cx="66.00" cy="108.00" r="2.10"/>
<circle cx="1026.00" cy="114.00" r="2.10"/>
<circle cx="726.00" cy="114.00" r="2.10"/>
<circle cx="690.00" cy="114.00" r="2.10"/>
<circle cx="390.00" cy="114.00" r="2.10"/>
<circle cx="354.00" cy="114.00" r="2.10"/>
<circle cx="54.00" cy="114.00" r="2.10"/>
<circle cx="1038.00" cy="120.00" r="2.10"/>
<circle cx="714.00" cy="120.00" r="2.10"/>
<circle cx="702.00" cy="120.00" r="2.10"/>
<circle cx="378.00" cy="120.00" r="2.10"/>
<circle cx="366.00" cy="120.00" r="2.10"/>
<circle cx="42.00" cy="120.00" r="2.10"/>
<circle cx="1044.00" cy="126.00" r="2.10"/>
<circle cx="1038.00" cy="126.00" r="2.10"/>
<circle cx="714.00" cy="126.00" r="2.10"/>
<circle cx="708.00" cy="126.00" r="2.10"/>
<circle cx="702.00" cy="126.00" r="2.10"/>
<circle cx="378.00" cy="126.00" r="2.10"/>
<circle cx="372.00" cy="126.00" r="2.10"/>
<circle cx="366.00" cy="126.00" r="2.10"/>
<circle cx="42.00" cy="126.00" r="2.10"/>
<circle cx="36.00" cy="126.00" r="2.10"/>
<circle cx="1026.00" cy="132.00" r="2.10"/>
<circle cx="726.00" cy="132.00" r="2.10"/>
<circle cx="690.00" cy="132.00" r="2.10"/>
<circle cx="390.00" cy="132.00" r="2.10"/>
<circle cx="354.00" cy="132.00" r="2.10"/>
<circle cx="54.00" cy="132.00" r="2.10"/>
<circle cx="1044.00" cy="138.00" r="2.10"/>
<circle cx="1014.00" cy="138.00" r="2.10"/>
<circle cx="738.00" cy="138.00" r="2.10"/>
<circle cx="708.00" cy="138.00" r="2.10"/>
<circle cx="678.00" cy="138.00" r="2.10"/>
<circle cx="402.00" cy="138.00" r="2.10"/>
<circle cx="372.00" cy="138.00" r="2.10"/>
<circle cx="342.00" cy="138.00" r="2.10"/>
<circle cx="66.00" cy="138.00" r="2.10"/>
<circle cx="36.00" cy="138.00" r="2.10"/>
<circle cx="1002.00" cy="144.00" r="2.10"/>
<circle cx="750.00" cy="144.00" r="2.10"/>
<circle cx="666.00" cy="144.00" r="2.10"/>
<circle cx="414.00" cy="144.00" r="2.10"/>
<circle cx="330.00" cy="144.00" r="2.10"/>
<circle cx="78.00" cy="144.00" r="2.10"/>
<circle cx="1044.00" cy="150.00" r="2.10"/>
<circle cx="990.00" cy="150.00" r="2.10"/>
<circle cx="762.00" cy="150.00" r="2.10"/>
<circle cx="708.00" cy="150.00" r="2.10"/>
<circle cx="654.00" cy="150.00" r="2.10"/>
<circle cx="426.00" cy="150.00" r="2.10"/>
<circle cx="372.00" cy="150.00" r="2.10"/>
<circle cx="318.00" cy="150.00" r="2.10"/>
<circle cx="90.00" cy="150.00" r="2.10"/>
<circle cx="36.00" cy="150.00" r="2.10"/>
<circle cx="978.00" cy="156.00" r="2.10"/>
<circle cx="774.00" cy="156.00" r="2.10"/>
<circle cx="642.00" cy="156.00" r="2.10"/>
<circle cx="438.00" cy="156.00" r="2.10"/>
<circle cx="306.00" cy="156.00" r="2.10"/>
<circle cx="102.00" cy="156.00" r="2.10"/>
<circle cx="1044.00" cy="162.00" r="2.10"/>
<circle cx="966.00" cy="162.00" r="2.10"/>
<circle cx="786.00" cy="162.00" r="2.10"/>
<circle cx="708.00" cy="162.00" r="2.10"/>
<circle cx="630.00" cy="162.00" r="2.10"/>
<circle cx="450.00" cy="162.00" r="2.10"/>
<circle cx="372.00" cy="162.00" r="2.10"/>
<circle cx="294.00" cy="162.00" r="2.10"/>
<circle cx="114.00" cy="162.00" r="2.10"/>
<circle cx="36.00" cy="162.00" r="2.10"/>
<circle cx="954.00" cy="168.00" r="2.10"/>
<circle cx="798.00" cy="168.00" r="2.10"/>
<circle cx="618.00" cy="168.00" r="2.10"/>
<circle cx="462.00" cy="168.00" r="2.10"/>
<circle cx="282.00" cy="168.00" r="2.10"/>
<circle cx="126.00" cy="168.00" r="2.10"/>
<circle cx="1044.00" cy="174.00" r="2.10"/>
<circle cx="942.00" cy="174.00" r="2.10"/>
<circle cx="810.00" cy="174.00" r="2.10"/>
<circle cx="708.00" cy="174.00" r="2.10"/>
<circle cx="606.00" cy="174.00" r="2.10"/>
<circle cx="474.00" cy="174.00" r="2.10"/>
<circle cx="372.00" cy="174.00" r="2.10"/>
<circle cx="270.00" cy="174.00" r="2.10"/>
<circle cx="138.00" cy="174.00" r="2.10"/>
<circle cx="36.00" cy="174.00" r="2.10"/>
<circle cx="930.00" cy="180.00" r="2.10"/>
<circle cx="822.00" cy="180.00" r="2.10"/>
<circle cx="594.00" cy="180.00" r="2.10"/>
<circle cx="486.00" cy="180.00" r="2.10"/>
<circle cx="258.00" cy="180.00" r="2.10"/>
<circle cx="150.00" cy="180.00" r="2.10"/>
<circle cx="1044.00" cy="186.00" r="2.10"/>
<circle cx="918.00" cy="186.00" r="2.10"/>
<circle cx="834.00" cy="186.00" r="2.10"/>
<circle cx="708.00" cy="186.00" r="2.10"/>
<circle cx="582.00" cy="186.00" r="2.10"/>
<circle cx="498.00" cy="186.00" r="2.10"/>
<circle cx="372.00" cy="186.00" r="2.10"/>
<circle cx="246.00" cy="186.00" r="2.10"/>
<circle cx="162.00" cy="186.00" r="2.10"/>
<circle cx="36.00" cy="186.00" r="2.10"/>
<circle cx="906.00" cy="192.00" r="2.10"/>
<circle cx="846.00" cy="192.00" r="2.10"/>
<circle cx="570.00" cy="192.00" r="2.10"/>
<circle cx="510.00" cy="192.00" r="2.10"/>
<circle cx="234.00" cy="192.00" r="2.10"/>
<circle cx="174.00" cy="192.00" r="2.10"/>
<circle cx="1044.00" cy="198.00" r="2.10"/>
<circle cx="894.00" cy="198.00" r="2.10"/>
<circle cx="858.00" cy="198.00" r="2.10"/>
<circle cx="708.00" cy="198.00" r="2.10"/>
<circle cx="558.00" cy="198.00" r="2.10"/>
<circle cx="522.00" cy="198.00" r="2.10"/>
<circle cx="372.00" cy="198.00" r="2.10"/>
<circle cx="222.00" cy="198.00" r="2.10"/>
<circle cx="186.00" cy="198.00" r="2.10"/>
<circle cx="36.00" cy="198.00" r="2.10"/>
<circle cx="882.00" cy="204.00" r="2.10"/>
<circle cx="870.00" cy="204.00" r="2.10"/>
<circle cx="546.00" cy="204.00" r="2.10"/>
<circle cx="534.00" cy="204.00" r="2.10"/>
<circle cx="210.00" cy="204.00" r="2.10"/>
<circle cx="198.00" cy="204.00" r="2.10"/>
<circle cx="1044.00" cy="210.00" r="2.10"/>
<circle cx="876.00" cy="210.00" r="2.10"/>
<circle cx="708.00" cy="210.00" r="2.10"/>
<circle cx="540.00" cy="210.00" r="2.10"/>
<circle cx="372.00" cy="210.00" r="2.10"/>
<circle cx="204.00" cy="210.00" r="2.10"/>
<circle cx="36.00" cy="210.00" r="2.10"/>
<circle cx="1044.00" cy="222.00" r="2.10"/>
<circle cx="876.00" cy="222.00" r="2.10"/>
<circle cx="708.00" cy="222.00" r="2.10"/>
<circle cx="540.00" cy="222.00" r="2.10"/>
<circle cx="372.00" cy="222.00" r="2.10"/>
<circle cx="204.00" cy="222.00" r="2.10"/>
<circle cx="36.00" cy="222.00" r="2.10"/>
<circle cx="1044.00" cy="234.00" r="2.10"/>
<circle cx="876.00" cy="234.00" r="2.10"/>
<circle cx="708.00" cy="234.00" r="2.10"/>
<circle cx="540.00" cy="234.00" r="2.10"/>
<circle cx="372.00" cy="234.00" r="2.10"/>
<circle cx="204.00" cy="234.00" r="2.10"/>
<circle cx="36.00" cy="234.00" r="2.10"/>
<circle cx="1044.00" cy="246.00" r="2.10"/>
<circle cx="876.00" cy="246.00" r="2.10"/>
<circle cx="708.00" cy="246.00" r="2.10"/>
<circle cx="540.00" cy="246.00" r="2.10"/>
<circle cx="372.00" cy="246.00" r="2.10"/>
<circle cx="204.00" cy="246.00" r="2.10"/>
<circle cx="36.00" cy="246.00" r="2.10"/>
<circle cx="1044.00" cy="258.00" r="2.10"/>
<circle cx="876.00" cy="258.00" r="2.10"/>
<circle cx="708.00" cy="258.00" r="2.10"/>
<circle cx="540.00" cy="258.00" r="2.10"/>
<circle cx="372.00" cy="258.00" r="2.10"/>
<circle cx="204.00" cy="258.00" r="2.10"/>
<circle cx="36.00" cy="258.00" r="2.10"/>
<circle cx="1044.00" cy="270.00" r="2.10"/>
<circle cx="876.00" cy="270.00" r="2.10"/>
<circle cx="708.00" cy="270.00" r="2.10"/>
<circle cx="540.00" cy="270.00" r="2.10"/>
<circle cx="372.00" cy="270.00" r="2.10"/>
<circle cx="204.00" cy="270.00" r="2.10"/>
<circle cx="36.00" cy="270.00" r="2.10"/>
<circle cx="1044.00" cy="282.00" r="2.10"/>
<circle cx="876.00" cy="282.00" r="2.10"/>
<circle cx="708.00" cy="282.00" r="2.10"/>
<circle cx="540.00" cy="282.00" r="2.10"/>
<circle cx="372.00" cy="282.00" r="2.10"/>
<circle cx="204.00" cy="282.00" r="2.10"/>
<circle cx="36.00" cy="282.00" r="2.10"/>
<circle cx="1038.00" cy="294.00" r="2.10"/>
<circle cx="876.00" cy="294.00" r="2.10"/>
<circle cx="714.00" cy="294.00" r="2.10"/>
<circle cx="702.00" cy="294.00" r="2.10"/>
<circle cx="540.00" cy="294.00" r="2.10"/>
<circle cx="378.00" cy="294.00" r="2.10"/>
<circle cx="366.00" cy="294.00" r="2.10"/>
<circle cx="204.00" cy="294.00" r="2.10"/>
<circle cx="42.00" cy="294.00" r="2.10"/>
<circle cx="1026.00" cy="300.00" r="2.10"/>
<circle cx="726.00" cy="300.00" r="2.10"/>
<circle cx="690.00" cy="300.00" r="2.10"/>
<circle cx="390.00" cy="300.00" r="2.10"/>
<circle cx="354.00" cy="300.00" r="2.10"/>
<circle cx="54.00" cy="300.00" r="2.10"/>
<circle cx="1014.00" cy="306.00" r="2.10"/>
<circle cx="876.00" cy="306.00" r="2.10"/>
<circle cx="738.00" cy="306.00" r="2.10"/>
<circle cx="678.00" cy="306.00" r="2.10"/>
<circle cx="540.00" cy="306.00" r="2.10"/>
<circle cx="402.00" cy="306.00" r="2.10"/>
<circle cx="342.00" cy="306.00" r="2.10"/>
<circle cx="204.00" cy="306.00" r="2.10"/>
<circle cx="66.00" cy="306.00" r="2.10"/>
<circle cx="1002.00" cy="312.00" r="2.10"/>
<circle cx="750.00" cy="312.00" r="2.10"/>
<circle cx="666.00" cy="312.00" r="2.10"/>
<circle cx="414.00" cy="312.00" r="2.10"/>
<circle cx="330.00" cy="312.00" r="2.10"/>
<circle cx="78.00" cy="312.00" r="2.10"/>
<circle cx="990.00" cy="318.00" r="2.10"/>
<circle cx="876.00" cy="318.00" r="2.10"/>
<circle cx="762.00" cy="318.00" r="2.10"/>
<circle cx="654.00" cy="318.00" r="2.10"/>
<circle cx="540.00" cy="318.00" r="2.10"/>
<circle cx="426.00" cy="318.00" r="2.10"/>
<circle cx="318.00" cy="318.00" r="2.10"/>
<circle cx="204.00" cy="318.00" r="2.10"/>
<circle cx="90.00" cy="318.00" r="2.10"/>
<circle cx="978.00" cy="324.00" r="2.10"/>
<circle cx="774.00" cy="324.00" r="2.10"/>
<circle cx="642.00" cy="324.00" r="2.10"/>
<circle cx="438.00" cy="324.00" r="2.10"/>
<circle cx="306.00" cy="324.00" r="2.10"/>
<circle cx="102.00" cy="324.00" r="2.10"/>
<circle cx="966.00" cy="330.00" r="2.10"/>
<circle cx="876.00" cy="330.00" r="2.10"/>
<circle cx="786.00" cy="330.00" r="2.10"/>
<circle cx="630.00" cy="330.00" r="2.10"/>
<circle cx="540.00" cy="330.00" r="2.10"/>
<circle cx="450.00" cy="330.00" r="2.10"/>
<circle cx="294.00" cy="330.00" r="2.10"/>
<circle cx="204.00" cy="330.00" r="2.10"/>
<circle cx="114.00" cy="330.00" r="2.10"/>
<circle cx="954.00" cy="336.00" r="2.10"/>
<circle cx="798.00" cy="336.00" r="2.10"/>
<circle cx="618.00" cy="336.00" r="2.10"/>
<circle cx="462.00" cy="336.00" r="2.10"/>
<circle cx="282.00" cy="336.00" r="2.10"/>
<circle cx="126.00" cy="336.00" r="2.10"/>
<circle cx="942.00" cy="342.00" r="2.10"/>
<circle cx="876.00" cy="342.00" r="2.10"/>
<circle cx="810.00" cy="342.00" r="2.10"/>
<circle cx="606.00" cy="342.00" r="2.10"/>
<circle cx="540.00" cy="342.00" r="2.10"/>
<circle cx="474.00" cy="342.00" r="2.10"/>
<circle cx="270.00" cy="342.00" r="2.10"/>
<circle cx="204.00" cy="342.00" r="2.10"/>
<circle cx="138.00" cy="342.00" r="2.10"/>
<circle cx="930.00" cy="348.00" r="2.10"/>
<circle cx="822.00" cy="348.00" r="2.10"/>
<circle cx="594.00" cy="348.00" r="2.10"/>
<circle cx="486.00" cy="348.00" r="2.10"/>
<circle cx="258.00" cy="348.00" r="2.10"/>
<circle cx="150.00" cy="348.00" r="2.10"/>
<circle cx="918.00" cy="354.00" r="2.10"/>
<circle cx="876.00" cy="354.00" r="2.10"/>
<circle cx="834.00" cy="354.00" r="2.10"/>
<circle cx="582.00" cy="354.00" r="2.10"/>
<circle cx="540.00" cy="354.00" r="2.10"/>
<circle cx="498.00" cy="354.00" r="2.10"/>
<circle cx="246.00" cy="354.00" r="2.10"/>
<circle cx="204.00" cy="354.00" r="2.10"/>
<circle cx="162.00" cy="354.00" r="2.10"/>
<circle cx="906.00" cy="360.00" r="2.10"/>
<circle cx="846.00" cy="360.00" r="2.10"/>
<circle cx="570.00" cy="360.00" r="2.10"/>
<circle cx="510.00" cy="360.00" r="2.10"/>
<circle cx="234.00" cy="360.00" r="2.10"/>
<circle cx="174.00" cy="360.00" r="2.10"/>
<circle cx="894.00" cy="366.00" r="2.10"/>
<circle cx="876.00" cy="366.00" r="2.10"/>
<circle cx="858.00" cy="366.00" r="2.10"/>
<circle cx="558.00" cy="366.00" r="2.10"/>
<circle cx="540.00" cy="366.00" r="2.10"/>
<circle cx="522.00" cy="366.00" r="2.10"/>
<circle cx="222.00" cy="366.00" r="2.10"/>
<circle cx="204.00" cy="366.00" r="2.10"/>
<circle cx="186.00" cy="366.00" r="2.10"/>
<circle cx="882.00" cy="372.00" r="2.10"/>
<circle cx="870.00" cy="372.00" r="2.10"/>
<circle cx="546.00" cy="372.00" r="2.10"/>
<circle cx="534.00" cy="372.00" r="2.10"/>
<circle cx="210.00" cy="372.00" r="2.10"/>
<circle cx="198.00" cy="372.00" r="2.10"/>
<circle cx="876.00" cy="378.00" r="2.10"/>
<circle cx="870.00" cy="378.00" r="2.10"/>
<circle cx="546.00" cy="378.00" r="2.10"/>
<circle cx="540.00" cy="378.00" r="2.10"/>
<circle cx="534.00" cy="378.00" r="2.10"/>
<circle cx="210.00" cy="378.00" r="2.10"/>
<circle cx="204.00" cy="378.00" r="2.10"/>
<circle cx="858.00" cy="384.00" r="2.10"/>
<circle cx="558.00" cy="384.00" r="2.10"/>
<circle cx="522.00" cy="384.00" r="2.10"/>
<circle cx="222.00" cy="384.00" r="2.10"/>
<circle cx="876.00" cy="390.00" r="2.10"/>
<circle cx="846.00" cy="390.00" r="2.10"/>
<circle cx="570.00" cy="390.00" r="2.10"/>
<circle cx="540.00" cy="390.00" r="2.10"/>
<circle cx="510.00" cy="390.00" r="2.10"/>
<circle cx="234.00" cy="390.00" r="2.10"/>
<circle cx="204.00" cy="390.00" r="2.10"/>
<circle cx="834.00" cy="396.00" r="2.10"/>
<circle cx="582.00" cy="396.00" r="2.10"/>
<circle cx="498.00" cy="396.00" r="2.10"/>
<circle cx="246.00" cy="396.00" r="2.10"/>
<circle cx="876.00" cy="402.00" r="2.10"/>
<circle cx="822.00" cy="402.00" r="2.10"/>
<circle cx="594.00" cy="402.00" r="2.10"/>
<circle cx="540.00" cy="402.00" r="2.10"/>
<circle cx="486.00" cy="402.00" r="2.10"/>
<circle cx="258.00" cy="402.00" r="2.10"/>
<circle cx="204.00" cy="402.00" r="2.10"/>
<circle cx="810.00" cy="408.00" r="2.10"/>
<circle cx="606.00" cy="408.00" r="2.10"/>
<circle cx="474.00" cy="408.00" r="2.10"/>
<circle cx="270.00" cy="408.00" r="2.10"/>
<circle cx="876.00" cy="414.00" r="2.10"/>
<circle cx="798.00" cy="414.00" r="2.10"/>
<circle cx="618.00" cy="414.00" r="2.10"/>
<circle cx="540.00" cy="414.00" r="2.10"/>
<circle cx="462.00" cy="414.00" r="2.10"/>
<circle cx="282.00" cy="414.00" r="2.10"/>
<circle cx="204.00" cy="414.00" r="2.10"/>
<circle cx="786.00" cy="420.00" r="2.10"/>
<circle cx="630.00" cy="420.00" r="2.10"/>
<circle cx="450.00" cy="420.00" r="2.10"/>
<circle cx="294.00" cy="420.00" r="2.10"/>
<circle cx="876.00" cy="426.00" r="2.10"/>
<circle cx="774.00" cy="426.00" r="2.10"/>
<circle cx="642.00" cy="426.00" r="2.10"/>
<circle cx="540.00" cy="426.00" r="2.10"/>
<circle cx="438.00" cy="426.00" r="2.10"/>
<circle cx="306.00" cy="426.00" r="2.10"/>
<circle cx="204.00" cy="426.00" r="2.10"/>
<circle cx="762.00" cy="432.00" r="2.10"/>
<circle cx="654.00" cy="432.00" r="2.10"/>
<circle cx="426.00" cy="432.00" r="2.10"/>
<circle cx="318.00" cy="432.00" r="2.10"/>
<circle cx="876.00" cy="438.00" r="2.10"/>
<circle cx="750.00" cy="438.00" r="2.10"/>
<circle cx="666.00" cy="438.00" r="2.10"/>
<circle cx="540.00" cy="438.00" r="2.10"/>
<circle cx="414.00" cy="438.00" r="2.10"/>
<circle cx="330.00" cy="438.00" r="2.10"/>
<circle cx="204.00" cy="438.00" r="2.10"/>
<circle cx="738.00" cy="444.00" r="2.10"/>
<circle cx="678.00" cy="444.00" r="2.10"/>
<circle cx="402.00" cy="444.00" r="2.10"/>
<circle cx="342.00" cy="444.00" r="2.10"/>
<circle cx="876.00" cy="450.00" r="2.10"/>
<circle cx="726.00" cy="450.00" r="2.10"/>
<circle cx="690.00" cy="450.00" r="2.10"/>
<circle cx="540.00" cy="450.00" r="2.10"/>
<circle cx="390.00" cy="450.00" r="2.10"/>
<circle cx="354.00" cy="450.00" r="2.10"/>
<circle cx="204.00" cy="450.00" r="2.10"/>
<circle cx="714.00" cy="456.00" r="2.10"/>
<circle cx="702.00" cy="456.00" r="2.10"/>
<circle cx="378.00" cy="456.00" r="2.10"/>
<circle cx="366.00" cy="456.00" r="2.10"/>
<circle cx="876.00" cy="462.00" r="2.10"/>
<circle cx="708.00" cy="462.00" r="2.10"/>
<circle cx="540.00" cy="462.00" r="2.10"/>
<circle cx="372.00" cy="462.00" r="2.10"/>
<circle cx="204.00" cy="462.00" r="2.10"/>
<circle cx="876.00" cy="474.00" r="2.10"/>
<circle cx="708.00" cy="474.00" r="2.10"/>
<circle cx="540.00" cy="474.00" r="2.10"/>
<circle cx="372.00" cy="474.00" r="2.10"/>
<circle cx="204.00" cy="474.00" r="2.10"/>
<circle cx="876.00" cy="486.00" r="2.10"/>
<circle cx="708.00" cy="486.00" r="2.10"/>
<circle cx="540.00" cy="486.00" r="2.10"/>
<circle cx="372.00" cy="486.00" r="2.10"/>
<circle cx="204.00" cy="486.00" r="2.10"/>
<circle cx="876.00" cy="498.00" r="2.10"/>
<circle cx="708.00" cy="498.00" r="2.10"/>
<circle cx="540.00" cy="498.00" r="2.10"/>
<circle cx="372.00" cy="498.00" r="2.10"/>
<circle cx="204.00" cy="498.00" r="2.10"/>
<circle cx="876.00" cy="510.00" r="2.10"/>
<circle cx="708.00" cy="510.00" r="2.10"/>
<circle cx="540.00" cy="510.00" r="2.10"/>
<circle cx="372.00" cy="510.00" r="2.10"/>
<circle cx="204.00" cy="510.00" r="2.10"/>
<circle cx="876.00" cy="522.00" r="2.10"/>
<circle cx="708.00" cy="522.00" r="2.10"/>
<circle cx="540.00" cy="522.00" r="2.10"/>
<circle cx="372.00" cy="522.00" r="2.10"/>
<circle cx="204.00" cy="522.00" r="2.10"/>
<circle cx="876.00" cy="534.00" r="2.10"/>
<circle cx="708.00" cy="534.00" r="2.10"/>
<circle cx="540.00" cy="534.00" r="2.10"/>
<circle cx="372.00" cy="534.00" r="2.10"/>
<circle cx="204.00" cy="534.00" r="2.10"/>
<circle cx="870.00" cy="546.00" r="2.10"/>
<circle cx="708.00" cy="546.00" r="2.10"/>
<circle cx="546.00" cy="546.00" r="2.10"/>
<circle cx="534.00" cy="546.00" r="2.10"/>
<circle cx="372.00" cy="546.00" r="2.10"/>
<circle cx="210.00" cy="546.00" r="2.10"/>
<circle cx="858.00" cy="552.00" r="2.10"/>
<circle cx="558.00" cy="552.00" r="2.10"/>
<circle cx="522.00" cy="552.00" r="2.10"/>
<circle cx="222.00" cy="552.00" r="2.10"/>
<circle cx="846.00" cy="558.00" r="2.10"/>
<circle cx="708.00" cy="558.00" r="2.10"/>
<circle cx="570.00" cy="558.00" r="2.10"/>
<circle cx="510.00" cy="558.00" r="2.10"/>
<circle cx="372.00" cy="558.00" r="2.10"/>
<circle cx="234.00" cy="558.00" r="2.10"/>
<circle cx="834.00" cy="564.00" r="2.10"/>
<circle cx="582.00" cy="564.00" r="2.10"/>
<circle cx="498.00" cy="564.00" r="2.10"/>
<circle cx="246.00" cy="564.00" r="2.10"/>
<circle cx="822.00" cy="570.00" r="2.10"/>
<circle cx="708.00" cy="570.00" r="2.10"/>
<circle cx="594.00" cy="570.00" r="2.10"/>
<circle cx="486.00" cy="570.00" r="2.10"/>
<circle cx="372.00" cy="570.00" r="2.10"/>
<circle cx="258.00" cy="570.00" r="2.10"/>
<circle cx="810.00" cy="576.00" r="2.10"/>
<circle cx="606.00" cy="576.00" r="2.10"/>
<circle cx="474.00" cy="576.00" r="2.10"/>
<circle cx="270.00" cy="576.00" r="2.10"/>
<circle cx="798.00" cy="582.00" r="2.10"/>
<circle cx="708.00" cy="582.00" r="2.10"/>
<circle cx="618.00" cy="582.00" r="2.10"/>
<circle cx="462.00" cy="582.00" r="2.10"/>
<circle cx="372.00" cy="582.00" r="2.10"/>
<circle cx="282.00" cy="582.00" r="2.10"/>
<circle cx="786.00" cy="588.00" r="2.10"/>
<circle cx="630.00" cy="588.00" r="2.10"/>
<circle cx="450.00" cy="588.00" r="2.10"/>
<circle cx="294.00" cy="588.00" r="2.10"/>
<circle cx="774.00" cy="594.00" r="2.10"/>
<circle cx="708.00" cy="594.00" r="2.10"/>
<circle cx="642.00" cy="594.00" r="2.10"/>
<circle cx="438.00" cy="594.00" r="2.10"/>
<circle cx="372.00" cy="594.00" r="2.10"/>
<circle cx="306.00" cy="594.00" r="2.10"/>
<circle cx="762.00" cy="600.00" r="2.10"/>
<circle cx="654.00" cy="600.00" r="2.10"/>
<circle cx="426.00" cy="600.00" r="2.10"/>
<circle cx="318.00" cy="600.00" r="2.10"/>
<circle cx="750.00" cy="606.00" r="2.10"/>
<circle cx="708.00" cy="606.00" r="2.10"/>
<circle cx="666.00" cy="606.00" r="2.10"/>
<circle cx="414.00" cy="606.00" r="2.10"/>
<circle cx="372.00" cy="606.00" r="2.10"/>
<circle cx="330.00" cy="606.00" r="2.10"/>
<circle cx="738.00" cy="612.00" r="2.10"/>
<circle cx="678.00" cy="612.00" r="2.10"/>
<circle cx="402.00" cy="612.00" r="2.10"/>
<circle cx="342.00" cy="612.00" r="2.10"/>
<circle cx="726.00" cy="618.00" r="2.10"/>
<circle cx="708.00" cy="618.00" r="2.10"/>
<circle cx="690.00" cy="618.00" r="2.10"/>
<circle cx="390.00" cy="618.00" r="2.10"/>
<circle cx="372.00" cy="618.00" r="2.10"/>
<circle cx="354.00" cy="618.00" r="2.10"/>
<circle cx="714.00" cy="624.00" r="2.10"/>
<circle cx="702.00" cy="624.00" r="2.10"/>
<circle cx="378.00" cy="624.00" r="2.10"/>
<circle cx="366.00" cy="624.00" r="2.10"/>
<circle cx="702.00" cy="630.00" r="2.10"/>
<circle cx="378.00" cy="630.00" r="2.10"/>
<circle cx="690.00" cy="636.00" r="2.10"/>
<circle cx="390.00" cy="636.00" r="2.10"/>
<circle cx="678.00" cy="642.00" r="2.10"/>
<circle cx="402.00" cy="642.00" r="2.10"/>
<circle cx="666.00" cy="648.00" r="2.10"/>
<circle cx="414.00" cy="648.00" r="2.10"/>
<circle cx="654.00" cy="654.00" r="2.10"/>
<circle cx="426.00" cy="654.00" r="2.10"/>
<circle cx="642.00" cy="660.00" r="2.10"/>
<circle cx="438.00" cy="660.00" r="2.10"/>
<circle cx="630.00" cy="666.00" r="2.10"/>
<circle cx="450.00" cy="666.00" r="2.10"/>
<circle cx="618.00" cy="672.00" r="2.10"/>
<circle cx="462.00" cy="672.00" r="2.10"/>
<circle cx="606.00" cy="678.00" r="2.10"/>
<circle cx="474.00" cy="678.00" r="2.10"/>
<circle cx="594.00" cy="684.00" r="2.10"/>
<circle cx="486.00" cy="684.00" r="2.10"/>
<circle cx="582.00" cy="690.00" r="2.10"/>
<circle cx="498.00" cy="690.00" r="2.10"/>
<circle cx="570.00" cy="696.00" r="2.10"/>
<circle cx="510.00" cy="696.00" r="2.10"/>
<circle cx="558.00" cy="702.00" r="2.10"/>
<circle cx="522.00" cy="702.00" r="2.10"/>
<circle cx="546.00" cy="708.00" r="2.10"/>
<circle cx="534.00" cy="708.00" r="2.10"/>
</g>
<g id="segment_labels" font-family="ui-monospace, SFMono-Regular, Menlo, monospace" font-size="15.6" font-weight="700" fill="#1a73e8" stroke="#ffffff" stroke-width="3.3" paint-order="stroke" text-anchor="middle">
<text x="1044.00" y="204.00">S1</text>
<text x="960.00" y="81.00">S2</text>
<text x="960.00" y="165.00">S3</text>
<text x="960.00" y="333.00">S4</text>
<text x="792.00" y="81.00">S5</text>
<text x="876.00" y="288.00">S6</text>
<text x="792.00" y="165.00">S7</text>
<text x="876.00" y="456.00">S8</text>
<text x="792.00" y="333.00">S9</text>
<text x="792.00" y="417.00">S10</text>
<text x="792.00" y="585.00">S11</text>
<text x="708.00" y="204.00">S12</text>
<text x="624.00" y="81.00">S13</text>
<text x="624.00" y="165.00">S14</text>
<text x="624.00" y="333.00">S15</text>
<text x="708.00" y="540.00">S16</text>
<text x="624.00" y="417.00">S17</text>
<text x="624.00" y="585.00">S18</text>
<text x="624.00" y="669.00">S19</text>
<text x="540.00" y="456.00">S20</text>
<text x="456.00" y="585.00">S21</text>
<text x="456.00" y="669.00">S22</text>
<text x="456.00" y="81.00">S23</text>
<text x="540.00" y="288.00">S24</text>
<text x="456.00" y="165.00">S25</text>
<text x="456.00" y="333.00">S26</text>
<text x="456.00" y="417.00">S27</text>
<text x="372.00" y="204.00">S28</text>
<text x="288.00" y="81.00">S29</text>
<text x="288.00" y="165.00">S30</text>
<text x="288.00" y="333.00">S31</text>
<text x="372.00" y="540.00">S32</text>
<text x="288.00" y="417.00">S33</text>
<text x="288.00" y="585.00">S34</text>
<text x="204.00" y="456.00">S35</text>
<text x="120.00" y="81.00">S36</text>
<text x="204.00" y="288.00">S37</text>
<text x="120.00" y="165.00">S38</text>
<text x="120.00" y="333.00">S39</text>
<text x="36.00" y="204.00">S40</text>
</g>
<g id="vertices" fill="#d93025" opacity="0.95">
<circle cx="1044.00" cy="120.00" r="3.30"/>
<circle cx="1044.00" cy="288.00" r="3.30"/>
<circle cx="876.00" cy="36.00" r="3.30"/>
<circle cx="876.00" cy="204.00" r="3.30"/>
<circle cx="876.00" cy="372.00" r="3.30"/>
<circle cx="876.00" cy="540.00" r="3.30"/>
<circle cx="708.00" cy="120.00" r="3.30"/>
<circle cx="708.00" cy="288.00" r="3.30"/>
<circle cx="708.00" cy="456.00" r="3.30"/>
<circle cx="708.00" cy="624.00" r="3.30"/>
<circle cx="540.00" cy="36.00" r="3.30"/>
<circle cx="540.00" cy="204.00" r="3.30"/>
<circle cx="540.00" cy="372.00" r="3.30"/>
<circle cx="540.00" cy="540.00" r="3.30"/>
<circle cx="540.00" cy="708.00" r="3.30"/>
<circle cx="372.00" cy="120.00" r="3.30"/>
<circle cx="372.00" cy="288.00" r="3.30"/>
<circle cx="372.00" cy="456.00" r="3.30"/>
<circle cx="372.00" cy="624.00" r="3.30"/>
<circle cx="204.00" cy="36.00" r="3.30"/>
<circle cx="204.00" cy="204.00" r="3.30"/>
<circle cx="204.00" cy="372.00" r="3.30"/>
<circle cx="204.00" cy="540.00" r="3.30"/>
<circle cx="36.00" cy="120.00" r="3.30"/>
<circle cx="36.00" cy="288.00" r="3.30"/>
</g>
<g id="vertex_labels" font-family="ui-monospace, SFMono-Regular, Menlo, monospace" font-size="14.4" font-weight="700" fill="#d93025" stroke="#ffffff" stroke-width="3.3" paint-order="stroke" text-anchor="start">
<text x="1048.00" y="116.00">V0</text>
<text x="1048.00" y="284.00">V1</text>
<text x="880.00" y="32.00">V2</text>
<text x="880.00" y="200.00">V3</text>
<text x="880.00" y="368.00">V4</text>
<text x="880.00" y="536.00">V5</text>
<text x="712.00" y="116.00">V6</text>
<text x="712.00" y="284.00">V7</text>
<text x="712.00" y="452.00">V8</text>
<text x="712.00" y="620.00">V9</text>
<text x="544.00" y="32.00">V10</text>
<text x="544.00" y="200.00">V11</text>
<text x="544.00" y="368.00">V12</text>
<text x="544.00" y="536.00">V13</text>
<text x="544.00" y="704.00">V14</text>
<text x="376.00" y="116.00">V15</text>
<text x="376.00" y="284.00">V16</text>
<text x="376.00" y="452.00">V17</text>
<text x="376.00" y="620.00">V18</text>
<text x="208.00" y="32.00">V19</text>
<text x="208.00" y="200.00">V20</text>
<text x="208.00" y="368.00">V21</text>
<text x="208.00" y="536.00">V22</text>
<text x="40.00" y="116.00">V23</text>
<text x="40.00" y="284.00">V24</text>
</g>
<g id="legend" font-family="ui-sans-serif, system-ui, -apple-system, Segoe UI, Roboto, sans-serif" font-size="12" fill="#202124">
<text x="1074.00" y="12.00">Chromance map (from ledmap.json)</text>
<text x="1074.00" y="30.00">S# = segment id, V# = vertex id</text>
</g>
</svg>